{"title":"[ShepardTDS] High School DxD New Dual Audio Uncensored [720p 8-b","uid":12667650,"size":2670704700,"categoryP":"video","categoryS":"tv_shows","magnet":"?xt=urn:btih:b5aae8d4d02fc1af2932434262ddf0dff99e66fb&amp;dn=%5BShepardTDS%5D+High+School+DxD+New+Dual+Audio+Uncensored+%5B720p+8-b&amp;tr=udp%3A%2F%2Ftracker.leechers-paradise.org%3A6969&amp;tr=udp%3A%2F%2Fzer0day.ch%3A1337&amp;tr=udp%3A%2F%2Fopen.demonii.com%3A1337&amp;tr=udp%3A%2F%2Ftracker.coppersurfer.tk%3A6969&amp;tr=udp%3A%2F%2Fexodus.desync.com%3A6969","seeders":3,"leechers":0,"uploader":"ShepardTDS","files":13,"time":1446388920,"description":"Constant Quality encoding.\r\nVariable Bit rates\r\nBlu-Ray Source\r\nOVA is Sub only\r\n\r\n\r\nGeneral\r\n\r\nFormat : Matroska\r\nFile size : 155 MiB-254 MiB\r\nDuration : 23mn 41s\r\nOverall bit rate : 915 Kbps-1,320 Kbps\r\nEncoded date : UTC 2015-11-01 10:50:20\r\nWriting application : mkvmerge v7.7.0 ('Six Voices') 32bit built on Feb 28 2015 23:23:00\r\nWriting library : libebml v1.3.1 + libmatroska v1.4.2\r\n\r\nVideo\r\nID : 1\r\nFormat : V_MPEGH/ISO/HEVC\r\nCodec ID : V_MPEGH/ISO/HEVC\r\nDuration : 23mn 41s\r\nBit rate : 705 Kbps-910 Kbps\r\nWidth : 1 280 pixels\r\nHeight : 720 pixels\r\nDisplay aspect ratio : 16:9\r\nFrame rate : 23.976 fps\r\nBits/(Pixel*Frame) : 0.032\r\nStream size : 119 MiB (77%)\r\n\r\nAudio\r\nID : 2\r\nFormat : AC-3\r\nFormat/Info : Audio Coding 3\r\nMode extension : CM (complete main)\r\nCodec ID : A_AC3\r\nDuration : 23mn 41s\r\nBit rate mode : Constant\r\nBit rate : 192 Kbps\r\nChannel(s) : 2 channels\r\nChannel positions : Front: L R\r\nSampling rate : 48.0 KHz\r\nBit depth : 16 bits\r\nCompression mode : Lossy\r\nStream size : 32.5 MiB (21%)\r\nLanguage : Japanese\r\n\r\nText\r\nID : 3\r\nFormat : ASS\r\nCodec ID : S_TEXT/ASS\r\nCodec ID/Info : Advanced Sub Station Alpha\r\nCompression mode : Lossless\r\nTitle : FFF\r\nLanguage : English\r\n\r\nMenu\r\n00:00:00.000 : en:Prologue\r\n00:02:14.134 : en:Opening\r\n00:03:44.224 : en:Part A\r\n00:11:42.702 : en:Eyecatch\r\n00:11:52.712 : en:Part B\r\n00:22:11.330 : en:Ending","torrent":{"xt":"urn:btih:b5aae8d4d02fc1af2932434262ddf0dff99e66fb","amp;dn":"%5BShepardTDS%5D+High+School+DxD+New+Dual+Audio+Uncensored+%5B720p+8-b","amp;tr":["udp%3A%2F%2Ftracker.leechers-paradise.org%3A6969","udp%3A%2F%2Fzer0day.ch%3A1337","udp%3A%2F%2Fopen.demonii.com%3A1337","udp%3A%2F%2Ftracker.coppersurfer.tk%3A6969","udp%3A%2F%2Fexodus.desync.com%3A6969"],"infoHash":"b5aae8d4d02fc1af2932434262ddf0dff99e66fb","infoHashBuffer":{"type":"Buffer","data":[181,170,232,212,208,47,193,175,41,50,67,66,98,221,240,223,249,158,102,251]},"announce":[],"urlList":[]}}